# Blender v3.6.0 OBJ File: ''
# www.blender.org
o Plane
v 5.000000 -0.000000 -2.500000
v 2.500000 -0.000000 -5.000000
v -2.500000 -0.000000 -5.000000
v 5.000000 0.000000 2.500000
v 0.000000 0.000000 0.000000
v 2.500000 0.000000 5.000000
v 0.000000 0.000000 5.000000
v 5.000000 0.000000 5.000000
v -5.000000 0.000000 0.000000
v -5.000000 0.000000 2.500000
v -2.500000 0.000000 5.000000
v -5.000000 0.000000 5.000000
v -5.000000 -0.000000 -5.000000
v -5.000000 -0.000000 -2.500000
v 0.000000 -0.000000 -5.000000
v 5.000000 0.000000 0.000000
v 5.000000 -0.000000 -5.000000
v 3.750000 -0.000000 -3.750000
v 3.750000 -0.000000 -2.500000
v -1.250000 -0.000000 -3.750000
v 3.750000 -0.000000 -5.000000
v -1.250000 0.000000 1.250000
v -3.750000 0.000000 0.000000
v 3.750000 0.000000 1.250000
v 3.750000 0.000000 2.500000
v 1.250000 0.000000 1.250000
v 1.250000 0.000000 3.750000
v 1.250000 0.000000 5.000000
v 3.750000 0.000000 5.000000
v -3.750000 0.000000 1.250000
v -3.750000 0.000000 2.500000
v -3.750000 0.000000 3.750000
v 2.500000 -0.000000 -3.750000
v -3.750000 -0.000000 -3.750000
v -3.750000 -0.000000 -2.500000
v 1.250000 -0.000000 -3.750000
v 3.750000 0.000000 0.000000
v 5.000000 -0.000000 -3.750000
v 2.500000 0.000000 3.750000
v -2.500000 0.000000 3.750000
v -3.750000 -0.000000 -1.250000
v 3.750000 0.000000 3.750000
v -1.250000 0.000000 3.750000
v -3.750000 -0.000000 -5.000000
v 0.000000 -0.000000 -3.750000
v -5.000000 -0.000000 -3.750000
v -2.500000 -0.000000 -3.750000
v 5.000000 0.000000 1.250000
v -5.000000 0.000000 3.750000
v 1.250000 0.000000 0.000000
v -1.250000 0.000000 5.000000
v -1.250000 -0.000000 -5.000000
v 1.250000 -0.000000 -5.000000
v 0.000000 -0.000000 -1.250000
v -5.000000 0.000000 1.250000
v 3.750000 -0.000000 -1.250000
v -1.250000 -0.000000 -1.250000
v 5.000000 0.000000 3.750000
v -5.000000 -0.000000 -1.250000
v 0.000000 0.000000 1.250000
v -3.750000 0.000000 5.000000
v 5.000000 -0.000000 -1.250000
v -1.250000 0.000000 0.000000
v 0.000000 0.000000 3.750000
v 1.250000 -0.000000 -1.250000
v 3.750000 3.178012 -2.500000
v 2.500000 4.565999 -2.500000
v 1.250000 4.565999 -2.500000
v 0.000000 4.565999 -2.500000
v -1.250000 4.565999 -2.500000
v -2.500000 4.565999 -2.500000
v -1.250000 3.178013 1.250000
v -2.500000 4.565999 -0.000000
v -1.250000 4.565999 2.500000
v -2.500000 4.565999 2.500000
v 3.750000 3.178013 1.250000
v 2.500000 4.565999 -0.000000
v 3.750000 3.178013 2.500000
v 2.500000 4.565999 2.500000
v 2.500000 3.178012 -3.750000
v 2.500000 4.565999 1.250000
v -2.500000 3.178012 -3.750000
v 2.500000 4.565999 -1.250000
v -2.500000 4.565999 -1.250000
v -2.500000 4.565999 1.250000
v 1.250000 4.565999 2.500000
v 1.250000 3.178013 -1.250000
v -1.250000 3.178012 -3.750000
v 0.000000 4.565999 2.500000
v -3.750000 3.178013 -0.000000
v 1.250000 3.178013 1.250000
v 1.250000 3.178013 3.750000
v -3.750000 3.178013 1.250000
v -3.750000 3.178013 2.500000
v -3.750000 3.178012 -3.750000
v -3.750000 3.178012 -2.500000
v 1.250000 3.178012 -3.750000
v 3.750000 3.178013 -0.000000
v 2.500000 3.178013 3.750000
v -2.500000 3.178013 3.750000
v -3.750000 3.178013 -1.250000
v 3.750000 3.178013 3.750000
v -1.250000 3.178013 3.750000
v 0.000000 3.178012 -3.750000
v 1.250000 3.178013 -0.000000
v 0.000000 3.178013 -1.250000
v 3.750000 3.178013 -1.250000
v -1.250000 3.178013 -1.250000
v 0.000000 3.178013 1.250000
v -1.250000 3.178013 -0.000000
v 0.000000 3.178013 3.750000
v -3.750000 3.178013 3.750000
v 3.750000 3.178012 -3.750000
vt 0.002733 0.634852
vt 0.187584 0.816429
vt 0.187584 0.634852
vt 0.002733 0.638142
vt 0.187584 0.818091
vt 0.187584 0.638142
vt 0.372435 0.994816
vt 0.187601 0.816479
vt 0.187601 0.994816
vt 0.002733 0.994816
vt 0.187584 0.816479
vt 0.187584 0.994816
vt 0.369212 0.994816
vt 0.187634 0.816479
vt 0.187634 0.994816
vt 0.002766 0.994816
vt 0.185989 0.816479
vt 0.185989 0.994816
vt 0.002766 0.998039
vt 0.185989 0.816445
vt 0.185989 0.998039
vt 0.002733 0.998039
vt 0.187584 0.816445
vt 0.187584 0.998039
vt 0.002733 0.816429
vt 0.002733 0.818091
vt 0.372435 0.816479
vt 0.002733 0.816479
vt 0.369212 0.816479
vt 0.002766 0.816479
vt 0.002766 0.816445
vt 0.002733 0.816445
vt 0.187601 0.816429
vt 0.187601 0.998006
vt 0.002766 0.998006
vt 0.372435 0.816429
vt 0.372435 0.998006
vt 0.187634 0.816445
vt 0.187634 0.634852
vt 0.006056 0.634852
vt 0.187634 0.816429
vt 0.187634 0.998006
vt 0.006056 0.998006
vt 0.369212 0.816429
vt 0.369212 0.998006
vt 0.187634 0.638142
vt 0.006056 0.638142
vt 0.187634 0.818091
vt 0.187634 0.998039
vt 0.006056 0.998039
vt 0.187634 0.818091
vt 0.185989 0.816479
vt 0.187584 0.638142
vt 0.185989 0.998039
vt 0.187601 0.818091
vt 0.187601 0.998039
vt 0.187601 0.816479
vt 0.185989 0.816429
vt 0.002766 0.816429
vt 0.002766 0.816429
vt 0.369212 0.816429
vt 0.002766 0.818091
vt 0.187601 0.818091
vt 0.185989 0.818091
vt 0.185989 0.998006
vt 0.187584 0.998006
vt 0.002733 0.998006
vt 0.187601 0.816429
vt 0.187584 0.816429
vt 0.369212 0.816479
vt 0.187601 0.816445
vt 0.187584 0.816479
vt 0.187584 0.634852
vt 0.187584 0.816445
vt 0.002766 0.818091
vt 0.002766 0.816479
vt 0.002766 0.816445
vt 0.006056 0.816445
vt 0.006056 0.816429
vt 0.185989 0.818091
vt 0.006056 0.816479
vt 0.006056 0.994816
vt 0.006056 0.818091
vt 0.187634 0.634852
vt 0.187601 0.816445
vt 0.185989 0.816429
vt 0.187634 0.998039
vt 0.187634 0.816429
vt 0.185989 0.816445
vt 0.372435 0.816479
vt 0.187584 0.818091
vt 0.187584 0.998039
vt 0.187634 0.816479
vt 0.187634 0.638142
vt 0.187634 0.816445
vt 0.372435 0.816429
vt 0.187601 0.998039
vt 0.405966 0.349119
vt 0.567209 0.508914
vt 0.567209 0.349119
vt 0.405966 0.352015
vt 0.567209 0.510377
vt 0.567209 0.352015
vt 0.731288 0.352015
vt 0.568627 0.510377
vt 0.568627 0.352015
vt 0.728451 0.352015
vt 0.568656 0.510377
vt 0.568656 0.352015
vt 0.728451 0.349119
vt 0.568656 0.508914
vt 0.568656 0.349119
vt 0.728451 0.668738
vt 0.568656 0.508929
vt 0.568656 0.668738
vt 0.731288 0.349119
vt 0.568627 0.508914
vt 0.568627 0.349119
vt 0.731288 0.668738
vt 0.568627 0.508929
vt 0.568627 0.668738
vt 0.405966 0.508914
vt 0.405966 0.510377
vt 0.731288 0.510377
vt 0.728451 0.510377
vt 0.728451 0.508914
vt 0.728451 0.508929
vt 0.731288 0.508914
vt 0.731288 0.508929
vt 0.568612 0.508929
vt 0.568612 0.349119
vt 0.567209 0.508929
vt 0.405966 0.508929
vt 0.567209 0.508958
vt 0.405966 0.508958
vt 0.568656 0.508958
vt 0.728451 0.508958
vt 0.568612 0.508958
vt 0.568612 0.352015
vt 0.568627 0.508958
vt 0.731288 0.508958
vt 0.568612 0.510377
vt 0.568612 0.668738
vt 0.567209 0.668738
vt 0.568612 0.508914
vn 0.0000 1.0000 -0.0000
vn 0.3015 0.9045 -0.3015
vn 0.7071 0.7071 -0.0000
vn 0.0000 0.7071 0.7071
vn 0.3015 0.9045 0.3015
vn -0.3015 0.9045 0.3015
vn 0.5774 0.5774 0.5774
vn 0.0000 0.7071 -0.7071
vn -0.7071 0.7071 -0.0000
vn -0.3015 0.9045 -0.3015
vn -0.9336 0.3584 0.0000
vn 0.0000 0.3584 0.9336
vn 0.9336 0.3584 0.0000
vn -0.5774 0.5774 -0.5774
vn 0.0000 0.3584 -0.9336
vn -0.5946 0.5413 -0.5946
vn 0.5774 0.5774 -0.5774
vn -0.1159 0.4355 0.8927
vn -0.5774 0.5774 0.5774
vn 0.6557 0.3744 0.6557
vn 0.8927 0.4355 -0.1159
vn 0.6171 0.4883 -0.6171
vn -0.6171 0.4883 0.6171
vn -0.6557 0.3744 -0.6557
vn 0.5946 0.5413 0.5946
vn -0.8927 0.4355 0.1159
vn 0.1159 0.4355 -0.8927
vn 0.1400 0.9836 0.1141
vn 0.1999 0.9592 0.1999
vn -0.3596 0.8610 0.3596
vn -0.1999 0.9592 -0.1999
vn 0.3596 0.8610 -0.3596
vn -0.1400 0.9836 -0.1141
vn -0.1141 0.9836 -0.1400
vn 0.1141 0.9836 0.1400
s 1
f 1/1/1 18/2/2 19/3/3
f 4/4/1 24/5/3 25/6/3
f 6/7/1 27/8/4 28/9/1
f 8/10/1 42/11/5 29/12/1
f 11/13/1 32/14/6 61/15/1
f 7/16/1 43/17/4 51/18/1
f 5/19/1 57/20/7 63/21/3
f 16/22/1 56/23/3 37/24/3
f 1/1/1 38/25/1 18/2/2
f 4/4/1 48/26/1 24/5/3
f 6/7/1 39/27/4 27/8/4
f 8/10/1 58/28/1 42/11/5
f 11/13/1 40/29/4 32/14/6
f 7/16/1 64/30/4 43/17/4
f 5/19/1 54/31/4 57/20/7
f 16/22/1 62/32/1 56/23/3
f 56/23/3 62/32/1 19/3/3
f 62/32/1 1/1/1 19/3/3
f 36/33/8 53/34/1 15/35/1
f 36/33/8 33/36/8 53/34/1
f 33/36/8 2/37/1 53/34/1
f 41/38/9 35/39/9 14/40/1
f 34/41/10 44/42/1 13/43/1
f 34/41/10 47/44/8 44/42/1
f 47/44/8 3/45/1 44/42/1
f 32/14/6 31/46/9 10/47/1
f 30/48/9 23/49/9 9/50/1
f 31/46/9 93/51/11 30/48/9
f 42/11/5 58/28/1 25/6/3
f 58/28/1 4/4/1 25/6/3
f 64/30/4 103/52/12 43/17/4
f 24/5/3 78/53/13 25/6/3
f 57/20/7 110/54/13 63/21/3
f 26/55/14 50/56/9 5/19/1
f 39/27/4 92/57/12 27/8/4
f 20/58/8 104/59/15 45/60/8
f 34/41/10 82/61/15 47/44/8
f 24/5/3 48/26/1 37/24/3
f 48/26/1 16/22/1 37/24/3
f 60/62/8 91/63/16 26/55/14
f 22/64/17 60/62/8 63/21/3
f 60/62/8 5/19/1 63/21/3
f 20/58/8 52/65/1 3/45/1
f 20/58/8 45/60/8 52/65/1
f 45/60/8 15/35/1 52/65/1
f 18/2/2 21/66/1 2/37/1
f 18/2/2 38/25/1 21/66/1
f 38/25/1 17/67/1 21/66/1
f 45/60/8 97/68/15 36/33/8
f 33/36/8 113/69/17 18/2/2
f 43/17/4 100/70/18 40/29/4
f 50/56/9 54/31/4 5/19/1
f 50/56/9 65/71/19 54/31/4
f 25/6/3 102/72/20 42/11/5
f 18/2/2 66/73/21 19/3/3
f 19/3/3 107/74/13 56/23/3
f 36/33/8 15/35/1 45/60/8
f 22/64/17 109/75/15 60/62/8
f 27/8/4 111/76/12 64/30/4
f 65/71/19 106/77/12 54/31/4
f 23/49/9 59/78/1 9/50/1
f 23/49/9 41/38/9 59/78/1
f 41/38/9 14/40/1 59/78/1
f 35/39/9 46/79/1 14/40/1
f 35/39/9 34/41/10 46/79/1
f 34/41/10 13/43/1 46/79/1
f 51/18/1 40/29/4 11/13/1
f 51/18/1 43/17/4 40/29/4
f 63/21/3 72/80/22 22/64/17
f 61/15/1 49/81/1 12/82/1
f 61/15/1 32/14/6 49/81/1
f 32/14/6 10/47/1 49/81/1
f 31/46/9 55/83/1 10/47/1
f 31/46/9 30/48/9 55/83/1
f 30/48/9 9/50/1 55/83/1
f 29/12/1 39/27/4 6/7/1
f 29/12/1 42/11/5 39/27/4
f 41/38/9 96/84/11 35/39/9
f 28/9/1 64/30/4 7/16/1
f 28/9/1 27/8/4 64/30/4
f 50/56/9 87/85/23 65/71/19
f 47/44/8 88/86/15 20/58/8
f 30/48/9 90/87/11 23/49/9
f 26/55/14 5/19/1 60/62/8
f 35/39/9 95/88/24 34/41/10
f 54/31/4 108/89/25 57/20/7
f 42/11/5 99/90/12 39/27/4
f 37/24/3 76/91/13 24/5/3
f 56/23/3 98/92/13 37/24/3
f 40/29/4 112/93/19 32/14/6
f 32/14/6 94/94/26 31/46/9
f 23/49/9 101/95/11 41/38/9
f 20/58/8 3/45/1 47/44/8
f 36/33/8 80/96/27 33/36/8
f 26/55/14 105/97/11 50/56/9
f 18/2/2 2/37/1 33/36/8
f 69/98/1 88/99/15 70/100/1
f 89/101/1 72/102/22 74/103/28
f 79/104/29 91/105/16 86/106/1
f 75/107/30 93/108/11 94/109/26
f 71/110/31 95/111/24 96/112/11
f 73/113/1 101/114/11 90/115/11
f 67/116/32 97/117/15 68/118/33
f 77/119/1 87/120/23 105/121/11
f 69/98/1 104/122/15 88/99/15
f 89/101/1 109/123/15 72/102/22
f 79/104/29 81/124/1 91/105/16
f 75/107/30 85/125/34 93/108/11
f 71/110/31 82/126/15 95/111/24
f 73/113/1 84/127/1 101/114/11
f 67/116/32 80/128/27 97/117/15
f 77/119/1 83/129/35 87/120/23
f 107/130/13 66/131/21 67/116/32
f 87/120/23 68/118/33 69/98/1
f 87/120/23 83/129/35 68/118/33
f 83/129/35 67/116/32 68/118/33
f 108/132/25 70/100/1 71/110/31
f 108/132/25 106/133/12 70/100/1
f 106/133/12 69/98/1 70/100/1
f 101/114/11 84/127/1 96/112/11
f 84/127/1 71/110/31 96/112/11
f 103/134/12 74/103/28 75/107/30
f 103/134/12 111/135/12 74/103/28
f 111/135/12 89/101/1 74/103/28
f 112/136/19 100/137/18 94/109/26
f 100/137/18 75/107/30 94/109/26
f 93/108/11 85/125/34 90/115/11
f 85/125/34 73/113/1 90/115/11
f 102/138/20 78/139/13 79/104/29
f 92/140/12 86/106/1 89/101/1
f 92/140/12 99/141/12 86/106/1
f 99/141/12 79/104/29 86/106/1
f 91/105/16 81/124/1 105/121/11
f 81/124/1 77/119/1 105/121/11
f 76/142/13 98/143/13 77/119/1
f 72/102/22 110/144/13 73/113/1
f 98/143/13 83/129/35 77/119/1
f 98/143/13 107/130/13 83/129/35
f 107/130/13 67/116/32 83/129/35
f 87/120/23 69/98/1 106/133/12
f 68/118/33 104/122/15 69/98/1
f 68/118/33 97/117/15 104/122/15
f 110/144/13 84/127/1 73/113/1
f 110/144/13 108/132/25 84/127/1
f 108/132/25 71/110/31 84/127/1
f 103/134/12 75/107/30 100/137/18
f 102/138/20 79/104/29 99/141/12
f 92/140/12 89/101/1 111/135/12
f 86/106/1 109/123/15 89/101/1
f 86/106/1 91/105/16 109/123/15
f 78/139/13 81/124/1 79/104/29
f 78/139/13 76/142/13 81/124/1
f 76/142/13 77/119/1 81/124/1
f 74/103/28 85/125/34 75/107/30
f 74/103/28 72/102/22 85/125/34
f 72/102/22 73/113/1 85/125/34
f 70/100/1 82/126/15 71/110/31
f 70/100/1 88/99/15 82/126/15
f 66/131/21 80/128/27 67/116/32
f 66/131/21 113/145/17 80/128/27
f 31/46/9 94/94/26 93/51/11
f 64/30/4 111/76/12 103/52/12
f 24/5/3 76/91/13 78/53/13
f 57/20/7 108/89/25 110/54/13
f 39/27/4 99/90/12 92/57/12
f 20/58/8 88/86/15 104/59/15
f 34/41/10 95/88/24 82/61/15
f 60/62/8 109/75/15 91/63/16
f 45/60/8 104/59/15 97/68/15
f 33/36/8 80/96/27 113/69/17
f 43/17/4 103/52/12 100/70/18
f 25/6/3 78/53/13 102/72/20
f 18/2/2 113/69/17 66/73/21
f 19/3/3 66/73/21 107/74/13
f 22/64/17 72/80/22 109/75/15
f 27/8/4 92/57/12 111/76/12
f 65/71/19 87/85/23 106/77/12
f 63/21/3 110/54/13 72/80/22
f 41/38/9 101/95/11 96/84/11
f 50/56/9 105/97/11 87/85/23
f 47/44/8 82/61/15 88/86/15
f 30/48/9 93/51/11 90/87/11
f 35/39/9 96/84/11 95/88/24
f 54/31/4 106/77/12 108/89/25
f 42/11/5 102/72/20 99/90/12
f 37/24/3 98/92/13 76/91/13
f 56/23/3 107/74/13 98/92/13
f 40/29/4 100/70/18 112/93/19
f 32/14/6 112/93/19 94/94/26
f 23/49/9 90/87/11 101/95/11
f 36/33/8 97/68/15 80/96/27
f 26/55/14 91/63/16 105/97/11
