# Blender v3.6.0 OBJ File: ''
# www.blender.org
o Plane
v 5.000000 -0.000000 -2.500000
v 2.500000 -0.000000 -5.000000
v 2.500000 -0.000000 -2.500000
v 0.000000 -0.000000 -2.500000
v -2.500000 -0.000000 -5.000000
v 5.000000 0.000000 2.500000
v 2.500000 0.000000 0.000000
v 2.500000 0.000000 5.000000
v 0.000000 0.000000 5.000000
v 5.000000 0.000000 5.000000
v -5.000000 0.000000 0.000000
v -5.000000 0.000000 2.500000
v -2.500000 0.000000 5.000000
v -5.000000 0.000000 5.000000
v -5.000000 -0.000000 -5.000000
v -5.000000 -0.000000 -2.500000
v 0.000000 -0.000000 -5.000000
v 5.000000 0.000000 0.000000
v 5.000000 -0.000000 -5.000000
v 3.750000 -0.000000 -3.750000
v 3.750000 -0.000000 -2.500000
v 1.250000 -0.000000 -2.500000
v -1.250000 -0.000000 -3.750000
v 3.750000 -0.000000 -5.000000
v -3.750000 0.000000 0.000000
v 3.750000 0.000000 1.250000
v 3.750000 0.000000 2.500000
v 1.250000 0.000000 3.750000
v 1.250000 0.000000 5.000000
v 3.750000 0.000000 5.000000
v -3.750000 0.000000 1.250000
v -3.750000 0.000000 2.500000
v -3.750000 0.000000 3.750000
v 2.500000 -0.000000 -3.750000
v -3.750000 -0.000000 -3.750000
v -3.750000 -0.000000 -2.500000
v 1.250000 -0.000000 -3.750000
v 3.750000 0.000000 0.000000
v 5.000000 -0.000000 -3.750000
v 2.500000 0.000000 3.750000
v -2.500000 0.000000 3.750000
v -3.750000 -0.000000 -1.250000
v 3.750000 0.000000 3.750000
v -1.250000 0.000000 3.750000
v -3.750000 -0.000000 -5.000000
v 0.000000 -0.000000 -3.750000
v -5.000000 -0.000000 -3.750000
v -2.500000 -0.000000 -3.750000
v 5.000000 0.000000 1.250000
v -5.000000 0.000000 3.750000
v 2.500000 -0.000000 -1.250000
v -1.250000 0.000000 5.000000
v -1.250000 -0.000000 -5.000000
v 1.250000 -0.000000 -5.000000
v -5.000000 0.000000 1.250000
v 3.750000 -0.000000 -1.250000
v 5.000000 0.000000 3.750000
v -5.000000 -0.000000 -1.250000
v -3.750000 0.000000 5.000000
v 5.000000 -0.000000 -1.250000
v 0.000000 0.000000 3.750000
v 1.250000 -0.000000 -1.250000
v -1.250000 3.696631 -2.500000
v -2.500000 3.696631 -2.500000
v -1.250000 3.696631 1.250000
v -2.500000 3.696631 -0.000000
v -1.250000 3.696631 2.500000
v -2.500000 3.696631 2.500000
v 3.750000 3.696631 1.250000
v 2.500000 3.696631 -0.000000
v 3.750000 3.696631 2.500000
v 2.500000 3.696631 2.500000
v 1.250000 3.696631 1.250000
v 0.000000 3.696631 -0.000000
v 2.500000 3.696631 1.250000
v -2.500000 3.696631 -3.750000
v 1.250000 3.696631 -0.000000
v -2.500000 3.696631 -1.250000
v 0.000000 3.696631 -1.250000
v -2.500000 3.696631 1.250000
v -1.250000 3.696631 -1.250000
v 1.250000 3.696631 2.500000
v 0.000000 3.696631 1.250000
v -1.250000 3.696631 -0.000000
v 1.250000 3.696631 -1.250000
v 0.000000 3.696631 -2.500000
v -1.250000 3.696631 -3.750000
v 0.000000 3.696631 2.500000
v -3.750000 3.696631 -0.000000
v 1.250000 3.696631 3.750000
v -3.750000 3.696631 1.250000
v -3.750000 3.696631 2.500000
v -3.750000 3.696631 -3.750000
v -3.750000 3.696631 -2.500000
v 2.500000 3.696631 3.750000
v -2.500000 3.696631 3.750000
v -3.750000 3.696631 -1.250000
v 3.750000 3.696631 3.750000
v -1.250000 3.696631 3.750000
v 0.000000 3.696631 3.750000
v -3.750000 3.696631 3.750000
vt 0.002733 0.634852
vt 0.187584 0.816429
vt 0.187584 0.634852
vt 0.002733 0.638142
vt 0.187584 0.818091
vt 0.187584 0.638142
vt 0.372435 0.994816
vt 0.187601 0.816479
vt 0.187601 0.994816
vt 0.002733 0.994816
vt 0.187584 0.816479
vt 0.187584 0.994816
vt 0.369212 0.994816
vt 0.187634 0.816479
vt 0.187634 0.994816
vt 0.002766 0.994816
vt 0.185989 0.816479
vt 0.185989 0.994816
vt 0.372435 0.634852
vt 0.187601 0.816429
vt 0.187601 0.634852
vt 0.002733 0.998039
vt 0.187584 0.816445
vt 0.187584 0.998039
vt 0.002733 0.816429
vt 0.002766 0.634852
vt 0.002766 0.816429
vt 0.185989 0.816429
vt 0.002733 0.818091
vt 0.372435 0.816479
vt 0.002733 0.816479
vt 0.369212 0.816479
vt 0.002766 0.816479
vt 0.372435 0.816429
vt 0.372435 0.998039
vt 0.372435 0.816445
vt 0.187601 0.816445
vt 0.002733 0.816445
vt 0.187601 0.998006
vt 0.002766 0.998006
vt 0.372435 0.998006
vt 0.187634 0.816445
vt 0.187634 0.634852
vt 0.006056 0.634852
vt 0.187634 0.816429
vt 0.187634 0.998006
vt 0.006056 0.998006
vt 0.369212 0.816429
vt 0.369212 0.998006
vt 0.187634 0.638142
vt 0.006056 0.638142
vt 0.187634 0.818091
vt 0.187634 0.998039
vt 0.006056 0.998039
vt 0.185989 0.998006
vt 0.187584 0.998006
vt 0.002733 0.998006
vt 0.185989 0.816479
vt 0.187584 0.638142
vt 0.185989 0.816429
vt 0.372435 0.816479
vt 0.372435 0.998039
vt 0.187634 0.816445
vt 0.006056 0.816445
vt 0.006056 0.816429
vt 0.187634 0.998039
vt 0.006056 0.816479
vt 0.006056 0.994816
vt 0.006056 0.818091
vt 0.187601 0.816479
vt 0.369212 0.816479
vt 0.369212 0.816429
vt 0.187584 0.818091
vt 0.187634 0.816479
vt 0.187601 0.816445
vt 0.187634 0.818091
vt 0.187634 0.638142
vt 0.002766 0.634852
vt 0.002766 0.816479
vt 0.187584 0.816479
vt 0.187634 0.816429
vt 0.187634 0.634852
vt 0.380567 0.682054
vt 0.537575 0.837651
vt 0.537575 0.682054
vt 0.380567 0.684874
vt 0.537575 0.839076
vt 0.537575 0.684874
vt 0.697344 0.684874
vt 0.538956 0.839076
vt 0.538956 0.684874
vt 0.694582 0.684874
vt 0.538984 0.839076
vt 0.538984 0.684874
vt 0.694582 0.682054
vt 0.538984 0.837651
vt 0.538984 0.682054
vt 0.694582 0.993277
vt 0.538984 0.837666
vt 0.538984 0.993277
vt 0.380567 0.993277
vt 0.537575 0.837666
vt 0.537575 0.993277
vt 0.697344 0.993277
vt 0.538956 0.837666
vt 0.538956 0.993277
vt 0.380567 0.839076
vt 0.697344 0.839076
vt 0.694582 0.839076
vt 0.694582 0.837651
vt 0.694582 0.837666
vt 0.380567 0.837666
vt 0.537575 0.837695
vt 0.380567 0.837695
vt 0.538984 0.837695
vt 0.694582 0.837695
vt 0.538942 0.837695
vt 0.538942 0.684874
vt 0.538956 0.837695
vt 0.697344 0.837695
vt 0.538942 0.839076
vn 0.0000 1.0000 -0.0000
vn 0.5491 0.8042 -0.2275
vn 0.7071 0.7071 -0.0000
vn 0.0000 0.7071 0.7071
vn 0.3015 0.9045 0.3015
vn -0.3015 0.9045 0.3015
vn 0.5000 0.7071 -0.5000
vn 0.2275 0.8042 -0.5491
vn -0.7071 0.7071 -0.0000
vn -0.3015 0.9045 -0.3015
vn 0.0000 0.7071 -0.7071
vn 0.2971 0.6303 -0.7173
vn 0.7173 0.6303 -0.2971
vn -0.5774 0.5774 0.5774
vn 0.5774 0.5774 0.5774
vn -0.5774 0.5774 -0.5774
s 1
f 1/1/1 20/2/1 21/3/1
f 6/4/1 26/5/2 27/6/3
f 8/7/1 28/8/4 29/9/1
f 10/10/1 43/11/5 30/12/1
f 13/13/1 33/14/6 59/15/1
f 9/16/1 44/17/4 52/18/1
f 3/19/1 37/20/1 22/21/1
f 18/22/1 56/23/1 38/24/1
f 1/1/1 39/25/1 20/2/1
f 4/26/7 46/27/1 23/28/8
f 6/4/1 49/29/1 26/5/2
f 8/7/1 40/30/4 28/8/4
f 10/10/1 57/31/1 43/11/5
f 13/13/1 41/32/4 33/14/6
f 9/16/1 61/33/4 44/17/4
f 3/19/1 34/34/1 37/20/1
f 7/35/7 51/36/1 62/37/7
f 18/22/1 60/38/1 56/23/1
f 56/23/1 21/3/1 3/19/1
f 56/23/1 60/38/1 21/3/1
f 60/38/1 1/1/1 21/3/1
f 62/37/7 22/21/1 4/26/7
f 62/37/7 51/36/1 22/21/1
f 51/36/1 3/19/1 22/21/1
f 37/20/1 54/39/1 17/40/1
f 37/20/1 34/34/1 54/39/1
f 34/34/1 2/41/1 54/39/1
f 42/42/9 36/43/9 16/44/1
f 35/45/10 45/46/1 15/47/1
f 35/45/10 48/48/11 45/46/1
f 48/48/11 5/49/1 45/46/1
f 33/14/6 32/50/9 12/51/1
f 31/52/9 25/53/9 11/54/1
f 43/11/5 57/31/1 27/6/3
f 57/31/1 6/4/1 27/6/3
f 26/5/2 38/24/1 7/35/7
f 26/5/2 49/29/1 38/24/1
f 49/29/1 18/22/1 38/24/1
f 23/28/8 53/55/1 5/49/1
f 23/28/8 46/27/1 53/55/1
f 46/27/1 17/40/1 53/55/1
f 20/2/1 24/56/1 2/41/1
f 20/2/1 39/25/1 24/56/1
f 39/25/1 19/57/1 24/56/1
f 38/24/1 51/36/1 7/35/7
f 38/24/1 56/23/1 51/36/1
f 56/23/1 3/19/1 51/36/1
f 61/33/4 99/58/4 44/17/4
f 26/5/2 71/59/3 27/6/3
f 48/48/11 87/60/12 23/28/8
f 22/21/1 46/27/1 4/26/7
f 22/21/1 37/20/1 46/27/1
f 37/20/1 17/40/1 46/27/1
f 43/11/5 95/61/4 40/30/4
f 62/37/7 70/62/7 7/35/7
f 25/53/9 97/63/9 42/42/9
f 25/53/9 58/64/1 11/54/1
f 25/53/9 42/42/9 58/64/1
f 42/42/9 16/44/1 58/64/1
f 36/43/9 47/65/1 16/44/1
f 36/43/9 35/45/10 47/65/1
f 35/45/10 15/47/1 47/65/1
f 52/18/1 41/32/4 13/13/1
f 52/18/1 44/17/4 41/32/4
f 31/52/9 89/66/9 25/53/9
f 59/15/1 50/67/1 14/68/1
f 59/15/1 33/14/6 50/67/1
f 33/14/6 12/51/1 50/67/1
f 32/50/9 55/69/1 12/51/1
f 32/50/9 31/52/9 55/69/1
f 31/52/9 11/54/1 55/69/1
f 30/12/1 40/30/4 8/7/1
f 30/12/1 43/11/5 40/30/4
f 40/30/4 90/70/4 28/8/4
f 29/9/1 61/33/4 9/16/1
f 29/9/1 28/8/4 61/33/4
f 44/17/4 96/71/4 41/32/4
f 35/45/10 76/72/11 48/48/11
f 7/35/7 69/73/13 26/5/2
f 41/32/4 101/74/14 33/14/6
f 4/26/7 85/75/7 62/37/7
f 32/50/9 91/76/9 31/52/9
f 33/14/6 92/77/9 32/50/9
f 23/28/8 86/78/7 4/26/7
f 28/8/4 100/79/4 61/33/4
f 27/6/3 98/80/15 43/11/5
f 36/43/9 93/81/16 35/45/10
f 42/42/9 94/82/9 36/43/9
f 23/28/8 5/49/1 48/48/11
f 21/3/1 34/34/1 3/19/1
f 21/3/1 20/2/1 34/34/1
f 20/2/1 2/41/1 34/34/1
f 86/83/7 87/84/12 63/85/1
f 88/86/1 65/87/1 67/88/1
f 72/89/1 73/90/1 82/91/1
f 68/92/1 91/93/9 92/94/9
f 64/95/1 93/96/16 94/97/9
f 66/98/1 97/99/9 89/100/9
f 74/101/1 81/102/1 84/103/1
f 70/104/7 85/105/7 77/106/1
f 88/86/1 83/107/1 65/87/1
f 72/89/1 75/108/1 73/90/1
f 68/92/1 80/109/1 91/93/9
f 64/95/1 76/110/11 93/96/16
f 66/98/1 78/111/1 97/99/9
f 74/101/1 79/112/1 81/102/1
f 81/102/1 63/85/1 64/95/1
f 81/102/1 79/112/1 63/85/1
f 79/112/1 86/83/7 63/85/1
f 97/99/9 78/111/1 94/97/9
f 78/111/1 64/95/1 94/97/9
f 99/113/4 67/88/1 68/92/1
f 99/113/4 100/114/4 67/88/1
f 100/114/4 88/86/1 67/88/1
f 101/115/14 96/116/4 92/94/9
f 96/116/4 68/92/1 92/94/9
f 91/93/9 80/109/1 89/100/9
f 80/109/1 66/98/1 89/100/9
f 98/117/15 71/118/3 72/89/1
f 90/119/4 82/91/1 88/86/1
f 90/119/4 95/120/4 82/91/1
f 95/120/4 72/89/1 82/91/1
f 73/90/1 77/106/1 74/101/1
f 73/90/1 75/108/1 77/106/1
f 75/108/1 70/104/7 77/106/1
f 65/87/1 84/103/1 66/98/1
f 65/87/1 83/107/1 84/103/1
f 83/107/1 74/101/1 84/103/1
f 77/106/1 79/112/1 74/101/1
f 77/106/1 85/105/7 79/112/1
f 85/105/7 86/83/7 79/112/1
f 84/103/1 78/111/1 66/98/1
f 84/103/1 81/102/1 78/111/1
f 81/102/1 64/95/1 78/111/1
f 99/113/4 68/92/1 96/116/4
f 98/117/15 72/89/1 95/120/4
f 90/119/4 88/86/1 100/114/4
f 82/91/1 83/107/1 88/86/1
f 82/91/1 73/90/1 83/107/1
f 73/90/1 74/101/1 83/107/1
f 71/118/3 75/108/1 72/89/1
f 71/118/3 69/121/13 75/108/1
f 69/121/13 70/104/7 75/108/1
f 67/88/1 80/109/1 68/92/1
f 67/88/1 65/87/1 80/109/1
f 65/87/1 66/98/1 80/109/1
f 63/85/1 76/110/11 64/95/1
f 63/85/1 87/84/12 76/110/11
f 61/33/4 100/79/4 99/58/4
f 26/5/2 69/73/13 71/59/3
f 48/48/11 76/72/11 87/60/12
f 43/11/5 98/80/15 95/61/4
f 62/37/7 85/75/7 70/62/7
f 25/53/9 89/66/9 97/63/9
f 31/52/9 91/76/9 89/66/9
f 40/30/4 95/61/4 90/70/4
f 44/17/4 99/58/4 96/71/4
f 35/45/10 93/81/16 76/72/11
f 7/35/7 70/62/7 69/73/13
f 41/32/4 96/71/4 101/74/14
f 4/26/7 86/78/7 85/75/7
f 32/50/9 92/77/9 91/76/9
f 33/14/6 101/74/14 92/77/9
f 23/28/8 87/60/12 86/78/7
f 28/8/4 90/70/4 100/79/4
f 27/6/3 71/59/3 98/80/15
f 36/43/9 94/82/9 93/81/16
f 42/42/9 97/63/9 94/82/9
