# Blender v3.6.0 OBJ File: ''
# www.blender.org
o Plane
v 5.000000 -0.000000 -2.500000
v 2.500000 -0.000000 -5.000000
v -2.500000 -0.000000 -5.000000
v 5.000000 0.000000 2.500000
v 2.500000 0.000000 5.000000
v 0.000000 0.000000 5.000000
v 5.000000 0.000000 5.000000
v -5.000000 0.000000 0.000000
v -5.000000 0.000000 2.500000
v -2.500000 0.000000 5.000000
v -5.000000 0.000000 5.000000
v -5.000000 -0.000000 -5.000000
v -5.000000 -0.000000 -2.500000
v 0.000000 -0.000000 -5.000000
v 5.000000 0.000000 0.000000
v 5.000000 -0.000000 -5.000000
v 3.750000 -0.000000 -3.750000
v 3.750000 -0.000000 -2.500000
v -1.250000 -0.000000 -3.750000
v 3.750000 -0.000000 -5.000000
v -3.750000 0.000000 0.000000
v 3.750000 0.000000 1.250000
v 3.750000 0.000000 2.500000
v 1.250000 0.000000 3.750000
v 1.250000 0.000000 5.000000
v 3.750000 0.000000 5.000000
v -3.750000 0.000000 1.250000
v -3.750000 0.000000 2.500000
v -3.750000 0.000000 3.750000
v 2.500000 -0.000000 -3.750000
v -3.750000 -0.000000 -3.750000
v -3.750000 -0.000000 -2.500000
v 1.250000 -0.000000 -3.750000
v 3.750000 0.000000 0.000000
v 5.000000 -0.000000 -3.750000
v 2.500000 0.000000 3.750000
v -2.500000 0.000000 3.750000
v -3.750000 -0.000000 -1.250000
v 3.750000 0.000000 3.750000
v -1.250000 0.000000 3.750000
v -3.750000 -0.000000 -5.000000
v 0.000000 -0.000000 -3.750000
v -5.000000 -0.000000 -3.750000
v -2.500000 -0.000000 -3.750000
v 5.000000 0.000000 1.250000
v -5.000000 0.000000 3.750000
v -1.250000 0.000000 5.000000
v -1.250000 -0.000000 -5.000000
v 1.250000 -0.000000 -5.000000
v -5.000000 0.000000 1.250000
v 3.750000 -0.000000 -1.250000
v 5.000000 0.000000 3.750000
v -5.000000 -0.000000 -1.250000
v -3.750000 0.000000 5.000000
v 5.000000 -0.000000 -1.250000
v 0.000000 0.000000 3.750000
v 3.750000 3.183136 -2.500000
v 2.500000 3.183136 -2.500000
v 1.250000 4.205974 -2.500000
v 0.000000 5.330485 -2.500000
v -1.250000 4.205974 -2.500000
v -2.500000 3.183136 -2.500000
v -1.250000 4.205974 1.250000
v -2.500000 3.183136 -0.000000
v -1.250000 4.205974 2.500000
v -2.500000 3.183136 2.500000
v 3.750000 3.183136 1.250000
v 2.500000 3.183136 -0.000000
v 3.750000 3.183136 2.500000
v 2.500000 3.183136 2.500000
v 1.250000 4.205974 1.250000
v 0.000000 5.330485 -0.000000
v 2.500000 3.183136 -3.750000
v 2.500000 3.183136 1.250000
v -2.500000 3.183136 -3.750000
v 2.500000 3.183136 -1.250000
v 1.250000 4.205974 -0.000000
v -2.500000 3.183136 -1.250000
v 0.000000 5.330485 -1.250000
v -2.500000 3.183136 1.250000
v -1.250000 4.205974 -1.250000
v 1.250000 4.205974 2.500000
v 0.000000 5.330485 1.250000
v -1.250000 4.205974 -0.000000
v 1.250000 4.205974 -1.250000
v -1.250000 4.205974 -3.750000
v 0.000000 5.330485 2.500000
v -3.750000 3.183136 -0.000000
v 1.250000 4.205975 3.750000
v -3.750000 3.183136 1.250000
v -3.750000 3.183136 2.500000
v -3.750000 3.183136 -3.750000
v -3.750000 3.183136 -2.500000
v 1.250000 4.205974 -3.750000
v 3.750000 3.183136 -0.000000
v 2.500000 3.183136 3.750000
v -2.500000 3.183136 3.750000
v -3.750000 3.183136 -1.250000
v 3.750000 3.183136 3.750000
v -1.250000 4.205975 3.750000
v 0.000000 5.330485 -3.750000
v 3.750000 3.183136 -1.250000
v 0.000000 5.330486 3.750000
v -3.750000 3.183136 3.750000
v 3.750000 3.183136 -3.750000
vt -0.000360 0.629983
vt 0.187551 0.814566
vt 0.187551 0.629983
vt -0.000360 0.633327
vt 0.187551 0.816255
vt 0.187551 0.633327
vt 0.375461 0.995905
vt 0.187568 0.814616
vt 0.187568 0.995905
vt -0.000360 0.995905
vt 0.187551 0.814616
vt 0.187551 0.995905
vt 0.372184 0.995905
vt 0.187602 0.814616
vt 0.187602 0.995905
vt -0.000326 0.995905
vt 0.185929 0.814616
vt 0.185929 0.995905
vt -0.000360 0.999182
vt 0.187551 0.814583
vt 0.187551 0.999182
vt -0.000360 0.814566
vt -0.000360 0.816255
vt 0.375461 0.814616
vt -0.000360 0.814616
vt 0.372184 0.814616
vt -0.000326 0.814616
vt -0.000360 0.814583
vt 0.187568 0.814566
vt 0.187568 0.999148
vt -0.000326 0.999148
vt 0.375461 0.814566
vt 0.375461 0.999148
vt 0.187602 0.814583
vt 0.187602 0.629983
vt 0.003019 0.629983
vt 0.187602 0.814566
vt 0.187602 0.999148
vt 0.003019 0.999148
vt 0.372184 0.814566
vt 0.372184 0.999148
vt 0.187602 0.633327
vt 0.003019 0.633327
vt 0.187602 0.816255
vt 0.187602 0.999182
vt 0.003019 0.999182
vt 0.185929 0.814566
vt 0.185929 0.999148
vt -0.000326 0.814566
vt 0.187551 0.999148
vt -0.000360 0.999148
vt 0.187602 0.814616
vt 0.375461 0.814566
vt 0.187551 0.816255
vt 0.187602 0.816255
vt 0.187602 0.633327
vt 0.187551 0.814566
vt 0.185929 0.814566
vt -0.000326 0.814566
vt 0.187568 0.814616
vt -0.000326 0.814616
vt 0.003019 0.814583
vt 0.003019 0.814566
vt 0.187551 0.629983
vt 0.003019 0.814616
vt 0.003019 0.995905
vt 0.003019 0.816255
vt 0.187551 0.814616
vt 0.187602 0.814566
vt 0.187551 0.999182
vt 0.187602 0.629983
vt 0.185929 0.814616
vt 0.187568 0.814566
vt 0.187551 0.633327
vt 0.372184 0.814566
vt 0.375461 0.814616
vt 0.187602 0.999182
vt 0.187602 0.814583
vt 0.372184 0.814616
vt 0.187551 0.814583
vt 0.377650 0.007582
vt 0.538528 0.167016
vt 0.538528 0.007582
vt 0.377650 0.010471
vt 0.538528 0.168475
vt 0.538528 0.010471
vt 0.702237 0.010471
vt 0.539944 0.168475
vt 0.539944 0.010471
vt 0.699406 0.010471
vt 0.539973 0.168475
vt 0.539973 0.010471
vt 0.699406 0.007582
vt 0.539973 0.167016
vt 0.539973 0.007582
vt 0.699406 0.326478
vt 0.539973 0.167030
vt 0.539973 0.326478
vt 0.377650 0.326478
vt 0.538528 0.167030
vt 0.538528 0.326478
vt 0.702237 0.007582
vt 0.539944 0.167016
vt 0.539944 0.007582
vt 0.702237 0.326478
vt 0.539944 0.167030
vt 0.539944 0.326478
vt 0.377650 0.167016
vt 0.377650 0.168475
vt 0.702237 0.168475
vt 0.699406 0.168475
vt 0.699406 0.167016
vt 0.699406 0.167030
vt 0.377650 0.167030
vt 0.702237 0.167016
vt 0.702237 0.167030
vt 0.539929 0.167030
vt 0.539929 0.007582
vt 0.538528 0.167059
vt 0.377650 0.167059
vt 0.539973 0.167059
vt 0.699406 0.167059
vt 0.539929 0.167059
vt 0.539929 0.010471
vt 0.539944 0.167059
vt 0.702237 0.167059
vt 0.539929 0.168475
vt 0.539929 0.326478
vt 0.539929 0.167016
vn 0.0000 1.0000 -0.0000
vn 0.3015 0.9045 -0.3015
vn 0.7071 0.7071 -0.0000
vn -0.0000 0.7071 0.7071
vn 0.3015 0.9045 0.3015
vn -0.3015 0.9045 0.3015
vn 0.0000 0.7071 -0.7071
vn -0.7071 0.7071 -0.0000
vn -0.3015 0.9045 -0.3015
vn -0.5774 0.5774 0.5774
vn 0.2056 0.5760 -0.7912
vn 0.5774 0.5774 -0.5774
vn -0.4570 0.5326 -0.7124
vn -0.0000 0.8124 -0.5831
vn 0.4570 0.5326 0.7124
vn 0.0000 0.8124 0.5831
vn 0.5774 0.5774 0.5774
vn -0.5774 0.5774 -0.5774
vn -0.4570 0.5326 0.7124
vn 0.4570 0.5326 -0.7124
vn -0.2056 0.5760 -0.7912
vn 0.2056 0.5760 0.7912
vn -0.2056 0.5760 0.7912
vn -0.6512 0.7589 -0.0000
vn 0.3362 0.9418 0.0000
vn 0.6512 0.7589 0.0000
vn -0.3362 0.9418 -0.0000
s 1
f 1/1/1 17/2/2 18/3/3
f 4/4/1 22/5/3 23/6/3
f 5/7/1 24/8/4 25/9/1
f 7/10/1 39/11/5 26/12/1
f 10/13/1 29/14/6 54/15/1
f 6/16/1 40/17/4 47/18/1
f 15/19/1 51/20/3 34/21/3
f 1/1/1 35/22/1 17/2/2
f 4/4/1 45/23/1 22/5/3
f 5/7/1 36/24/4 24/8/4
f 7/10/1 52/25/1 39/11/5
f 10/13/1 37/26/4 29/14/6
f 6/16/1 56/27/4 40/17/4
f 15/19/1 55/28/1 51/20/3
f 51/20/3 55/28/1 18/3/3
f 55/28/1 1/1/1 18/3/3
f 33/29/7 49/30/1 14/31/1
f 33/29/7 30/32/7 49/30/1
f 30/32/7 2/33/1 49/30/1
f 38/34/8 32/35/8 13/36/1
f 31/37/9 41/38/1 12/39/1
f 31/37/9 44/40/7 41/38/1
f 44/40/7 3/41/1 41/38/1
f 29/14/6 28/42/8 9/43/1
f 27/44/8 21/45/8 8/46/1
f 39/11/5 52/25/1 23/6/3
f 52/25/1 4/4/1 23/6/3
f 22/5/3 45/23/1 34/21/3
f 45/23/1 15/19/1 34/21/3
f 19/47/7 48/48/1 3/41/1
f 19/47/7 42/49/7 48/48/1
f 42/49/7 14/31/1 48/48/1
f 17/2/2 20/50/1 2/33/1
f 17/2/2 35/22/1 20/50/1
f 35/22/1 16/51/1 20/50/1
f 37/26/4 104/52/10 29/14/6
f 33/29/7 73/53/11 30/32/7
f 34/21/3 67/54/3 22/5/3
f 28/42/8 90/55/8 27/44/8
f 29/14/6 91/56/8 28/42/8
f 33/29/7 14/31/1 42/49/7
f 30/32/7 105/57/12 17/2/2
f 42/49/7 86/58/13 101/59/14
f 56/27/4 89/60/15 103/61/16
f 21/45/8 53/62/1 8/46/1
f 21/45/8 38/34/8 53/62/1
f 38/34/8 13/36/1 53/62/1
f 32/35/8 43/63/1 13/36/1
f 32/35/8 31/37/9 43/63/1
f 31/37/9 12/39/1 43/63/1
f 47/18/1 37/26/4 10/13/1
f 47/18/1 40/17/4 37/26/4
f 17/2/2 57/64/3 18/3/3
f 54/15/1 46/65/1 11/66/1
f 54/15/1 29/14/6 46/65/1
f 29/14/6 9/43/1 46/65/1
f 28/42/8 50/67/1 9/43/1
f 28/42/8 27/44/8 50/67/1
f 27/44/8 8/46/1 50/67/1
f 26/12/1 36/24/4 5/7/1
f 26/12/1 39/11/5 36/24/4
f 23/6/3 99/68/17 39/11/5
f 25/9/1 56/27/4 6/16/1
f 25/9/1 24/8/4 56/27/4
f 32/35/8 92/69/18 31/37/9
f 51/20/3 95/70/3 34/21/3
f 38/34/8 93/71/8 32/35/8
f 56/27/4 100/72/19 40/17/4
f 42/49/7 94/73/20 33/29/7
f 22/5/3 69/74/3 23/6/3
f 19/47/7 75/75/21 86/58/13
f 39/11/5 96/76/22 36/24/4
f 27/44/8 88/77/8 21/45/8
f 21/45/8 98/78/8 38/34/8
f 24/8/4 96/76/22 89/60/15
f 40/17/4 97/79/23 37/26/4
f 19/47/7 3/41/1 44/40/7
f 31/37/9 75/75/21 44/40/7
f 18/3/3 102/80/3 51/20/3
f 17/2/2 2/33/1 30/32/7
f 60/81/1 86/82/13 61/83/24
f 87/84/1 63/85/24 65/86/24
f 70/87/25 71/88/26 82/89/26
f 66/90/27 90/91/8 91/92/8
f 62/93/27 92/94/18 93/95/8
f 64/96/27 98/97/8 88/98/8
f 72/99/1 81/100/24 84/101/24
f 58/102/25 94/103/20 59/104/26
f 68/105/25 85/106/26 77/107/26
f 60/81/1 101/108/14 86/82/13
f 87/84/1 83/109/1 63/85/24
f 70/87/25 74/110/25 71/88/26
f 66/90/27 80/111/27 90/91/8
f 62/93/27 75/112/21 92/94/18
f 64/96/27 78/113/27 98/97/8
f 72/99/1 79/114/1 81/100/24
f 58/102/25 73/115/11 94/103/20
f 68/105/25 76/116/25 85/106/26
f 102/117/3 57/118/3 58/102/25
f 85/106/26 59/104/26 60/81/1
f 85/106/26 76/116/25 59/104/26
f 76/116/25 58/102/25 59/104/26
f 81/100/24 61/83/24 62/93/27
f 81/100/24 79/114/1 61/83/24
f 79/114/1 60/81/1 61/83/24
f 98/97/8 78/113/27 93/95/8
f 78/113/27 62/93/27 93/95/8
f 100/119/19 65/86/24 66/90/27
f 100/119/19 103/120/16 65/86/24
f 103/120/16 87/84/1 65/86/24
f 104/121/10 97/122/23 91/92/8
f 97/122/23 66/90/27 91/92/8
f 90/91/8 80/111/27 88/98/8
f 80/111/27 64/96/27 88/98/8
f 99/123/17 69/124/3 70/87/25
f 89/125/15 82/89/26 87/84/1
f 89/125/15 96/126/22 82/89/26
f 96/126/22 70/87/25 82/89/26
f 71/88/26 77/107/26 72/99/1
f 71/88/26 74/110/25 77/107/26
f 74/110/25 68/105/25 77/107/26
f 67/127/3 95/128/3 68/105/25
f 63/85/24 84/101/24 64/96/27
f 63/85/24 83/109/1 84/101/24
f 83/109/1 72/99/1 84/101/24
f 95/128/3 76/116/25 68/105/25
f 95/128/3 102/117/3 76/116/25
f 102/117/3 58/102/25 76/116/25
f 77/107/26 79/114/1 72/99/1
f 77/107/26 85/106/26 79/114/1
f 85/106/26 60/81/1 79/114/1
f 59/104/26 101/108/14 60/81/1
f 59/104/26 94/103/20 101/108/14
f 84/101/24 78/113/27 64/96/27
f 84/101/24 81/100/24 78/113/27
f 81/100/24 62/93/27 78/113/27
f 100/119/19 66/90/27 97/122/23
f 99/123/17 70/87/25 96/126/22
f 89/125/15 87/84/1 103/120/16
f 82/89/26 83/109/1 87/84/1
f 82/89/26 71/88/26 83/109/1
f 71/88/26 72/99/1 83/109/1
f 69/124/3 74/110/25 70/87/25
f 69/124/3 67/127/3 74/110/25
f 67/127/3 68/105/25 74/110/25
f 65/86/24 80/111/27 66/90/27
f 65/86/24 63/85/24 80/111/27
f 63/85/24 64/96/27 80/111/27
f 61/83/24 75/112/21 62/93/27
f 61/83/24 86/82/13 75/112/21
f 57/118/3 73/115/11 58/102/25
f 57/118/3 105/129/12 73/115/11
f 37/26/4 97/79/23 104/52/10
f 33/29/7 94/73/20 73/53/11
f 34/21/3 95/70/3 67/54/3
f 28/42/8 91/56/8 90/55/8
f 29/14/6 104/52/10 91/56/8
f 30/32/7 73/53/11 105/57/12
f 42/49/7 19/47/7 86/58/13
f 56/27/4 24/8/4 89/60/15
f 17/2/2 105/57/12 57/64/3
f 23/6/3 69/74/3 99/68/17
f 32/35/8 93/71/8 92/69/18
f 51/20/3 102/80/3 95/70/3
f 38/34/8 98/78/8 93/71/8
f 56/27/4 103/61/16 100/72/19
f 42/49/7 101/59/14 94/73/20
f 22/5/3 67/54/3 69/74/3
f 19/47/7 44/40/7 75/75/21
f 39/11/5 99/68/17 96/76/22
f 27/44/8 90/55/8 88/77/8
f 21/45/8 88/77/8 98/78/8
f 24/8/4 36/24/4 96/76/22
f 40/17/4 100/72/19 97/79/23
f 31/37/9 92/69/18 75/75/21
f 18/3/3 57/64/3 102/80/3
