# Blender v3.6.0 OBJ File: ''
# www.blender.org
o Plane
v -5.000000 0.000000 5.000000
v 5.000000 0.000000 5.000000
v -5.000000 0.000000 -5.000000
v 5.000000 0.000000 -5.000000
v -5.000000 0.000000 0.000000
v 0.000000 0.000000 5.000000
v 5.000000 0.000000 0.000000
v 0.000000 0.000000 -5.000000
v 0.000000 0.000000 0.000000
v -5.000000 0.000000 2.500000
v 2.500000 0.000000 5.000000
v 5.000000 0.000000 -2.500000
v -2.500000 0.000000 -5.000000
v -5.000000 0.000000 -2.500000
v -2.500000 0.000000 5.000000
v 5.000000 0.000000 2.500000
v 2.500000 0.000000 -5.000000
v 0.000000 0.000000 -2.500000
v 0.000000 0.000000 2.500000
v -2.500000 0.000000 0.000000
v 2.500000 0.000000 0.000000
v 2.500000 0.000000 2.500000
v -2.500000 0.000000 2.500000
v -2.500000 0.000000 -2.500000
v 2.500000 0.000000 -2.500000
vt 0.015987 0.020003
vt 0.349964 0.348065
vt 0.349964 0.020003
vt 0.016017 0.020003
vt 0.347052 0.348065
vt 0.347052 0.020003
vt 0.016017 0.022976
vt 0.347052 0.348095
vt 0.347052 0.022976
vt 0.015987 0.022976
vt 0.349964 0.348095
vt 0.349964 0.022976
vt 0.016017 0.348095
vt 0.349964 0.345183
vt 0.016017 0.345183
vt 0.015987 0.345183
vt 0.018989 0.348095
vt 0.018989 0.022976
vt 0.347052 0.345183
vt 0.018989 0.345183
vt 0.018989 0.348065
vt 0.018989 0.020003
vt 0.016017 0.348065
vt 0.015987 0.348095
vt 0.015987 0.348065
vn 0.0000 1.0000 0.0000
s off
f 12/1/1 17/2/1 25/3/1
f 18/4/1 13/5/1 24/6/1
f 19/7/1 20/8/1 23/9/1
f 16/10/1 21/11/1 22/12/1
f 22/12/1 9/13/1 19/7/1
f 11/14/1 19/7/1 6/15/1
f 2/16/1 22/12/1 11/14/1
f 23/9/1 5/17/1 10/18/1
f 15/19/1 10/18/1 1/20/1
f 6/15/1 23/9/1 15/19/1
f 24/6/1 3/21/1 14/22/1
f 20/8/1 14/22/1 5/17/1
f 9/13/1 24/6/1 20/8/1
f 25/3/1 8/23/1 18/4/1
f 21/11/1 18/4/1 9/13/1
f 7/24/1 25/3/1 21/11/1
f 12/1/1 4/25/1 17/2/1
f 18/4/1 8/23/1 13/5/1
f 19/7/1 9/13/1 20/8/1
f 16/10/1 7/24/1 21/11/1
f 22/12/1 21/11/1 9/13/1
f 11/14/1 22/12/1 19/7/1
f 2/16/1 16/10/1 22/12/1
f 23/9/1 20/8/1 5/17/1
f 15/19/1 23/9/1 10/18/1
f 6/15/1 19/7/1 23/9/1
f 24/6/1 13/5/1 3/21/1
f 20/8/1 24/6/1 14/22/1
f 9/13/1 18/4/1 24/6/1
f 25/3/1 17/2/1 8/23/1
f 21/11/1 25/3/1 18/4/1
f 7/24/1 12/1/1 25/3/1
