# Blender v3.6.0 OBJ File: ''
# www.blender.org
o Plane
v 5.000000 -0.000000 -2.500000
v 2.500000 -0.000000 -5.000000
v -2.500000 -0.000000 -5.000000
v 0.000000 0.000000 2.500000
v 5.000000 0.000000 2.500000
v 2.500000 0.000000 0.000000
v 2.500000 0.000000 2.500000
v 0.000000 0.000000 0.000000
v 2.500000 0.000000 5.000000
v 0.000000 0.000000 5.000000
v 5.000000 0.000000 5.000000
v -5.000000 0.000000 0.000000
v -5.000000 0.000000 2.500000
v -2.500000 0.000000 5.000000
v -5.000000 0.000000 5.000000
v -5.000000 -0.000000 -5.000000
v -5.000000 -0.000000 -2.500000
v 0.000000 -0.000000 -5.000000
v 5.000000 0.000000 0.000000
v 5.000000 -0.000000 -5.000000
v 3.750000 -0.000000 -3.750000
v 3.750000 -0.000000 -2.500000
v -1.250000 -0.000000 -3.750000
v 3.750000 -0.000000 -5.000000
v -1.250000 0.000000 1.250000
v -1.250000 0.000000 2.500000
v -3.750000 0.000000 0.000000
v 3.750000 0.000000 1.250000
v 3.750000 0.000000 2.500000
v 1.250000 0.000000 1.250000
v 1.250000 0.000000 3.750000
v 1.250000 0.000000 5.000000
v 3.750000 0.000000 5.000000
v -3.750000 0.000000 1.250000
v -3.750000 0.000000 2.500000
v -3.750000 0.000000 3.750000
v 2.500000 -0.000000 -3.750000
v -3.750000 -0.000000 -3.750000
v -3.750000 -0.000000 -2.500000
v 1.250000 -0.000000 -3.750000
v 3.750000 0.000000 0.000000
v 5.000000 -0.000000 -3.750000
v 2.500000 0.000000 3.750000
v -2.500000 0.000000 3.750000
v -3.750000 -0.000000 -1.250000
v 3.750000 0.000000 3.750000
v -1.250000 0.000000 3.750000
v -3.750000 -0.000000 -5.000000
v 2.500000 0.000000 1.250000
v 0.000000 -0.000000 -3.750000
v -5.000000 -0.000000 -3.750000
v -2.500000 -0.000000 -3.750000
v 5.000000 0.000000 1.250000
v -5.000000 0.000000 3.750000
v 2.500000 -0.000000 -1.250000
v 1.250000 0.000000 0.000000
v -1.250000 0.000000 5.000000
v -1.250000 -0.000000 -5.000000
v 1.250000 -0.000000 -5.000000
v 0.000000 -0.000000 -1.250000
v -5.000000 0.000000 1.250000
v 3.750000 -0.000000 -1.250000
v -1.250000 -0.000000 -1.250000
v 5.000000 0.000000 3.750000
v 1.250000 0.000000 2.500000
v -5.000000 -0.000000 -1.250000
v 0.000000 0.000000 1.250000
v -3.750000 0.000000 5.000000
v 5.000000 -0.000000 -1.250000
v -1.250000 0.000000 0.000000
v 0.000000 0.000000 3.750000
v 1.250000 -0.000000 -1.250000
v 3.750000 3.045851 -2.500000
v 2.500000 4.063928 -2.500000
v 1.250000 4.063928 -2.500000
v 0.000000 4.063928 -2.500000
v -1.250000 4.063928 -2.500000
v -2.500000 4.063928 -2.500000
v -1.250000 3.045852 1.250000
v -2.500000 4.063928 -0.000000
v -1.250000 3.045852 2.500000
v -2.500000 4.063928 2.500000
v 2.500000 3.045851 -3.750000
v -2.500000 3.045851 -3.750000
v -2.500000 4.063928 -1.250000
v -2.500000 4.063928 1.250000
v -1.250000 3.045851 -3.750000
v -3.750000 3.045852 -0.000000
v -3.750000 3.045852 1.250000
v -3.750000 3.045852 2.500000
v -3.750000 3.045851 -3.750000
v -3.750000 3.045851 -2.500000
v 1.250000 3.045851 -3.750000
v -2.500000 3.045852 3.750000
v -3.750000 3.045852 -1.250000
v -1.250000 3.045852 3.750000
v 0.000000 3.045851 -3.750000
v 2.500000 3.045852 -1.250000
v 0.000000 3.045852 -1.250000
v 3.750000 3.045852 -1.250000
v -1.250000 3.045852 -1.250000
v -1.250000 3.045852 -0.000000
v 1.250000 3.045852 -1.250000
v 3.750000 3.045851 -3.750000
vt 0.002733 0.634852
vt 0.187584 0.816429
vt 0.187584 0.634852
vt 0.002766 0.638142
vt 0.185989 0.818091
vt 0.185989 0.638142
vt 0.002733 0.638142
vt 0.187584 0.818091
vt 0.187584 0.638142
vt 0.359933 0.006142
vt 0.186349 0.175137
vt 0.186349 0.006142
vt 0.372435 0.994816
vt 0.187601 0.816479
vt 0.187601 0.994816
vt 0.002733 0.994816
vt 0.187584 0.816479
vt 0.187584 0.994816
vt 0.369212 0.994816
vt 0.187634 0.816479
vt 0.187634 0.994816
vt 0.002766 0.994816
vt 0.185989 0.816479
vt 0.185989 0.994816
vt 0.002766 0.998039
vt 0.185989 0.816445
vt 0.185989 0.998039
vt 0.372435 0.998039
vt 0.187601 0.816445
vt 0.187601 0.998039
vt 0.002733 0.998039
vt 0.187584 0.816445
vt 0.187584 0.998039
vt 0.002733 0.816429
vt 0.002766 0.818091
vt 0.002733 0.818091
vt 0.359933 0.175137
vt 0.372435 0.816479
vt 0.002733 0.816479
vt 0.369212 0.816479
vt 0.002766 0.816479
vt 0.002766 0.816445
vt 0.372435 0.816445
vt 0.002733 0.816445
vt 0.187601 0.816429
vt 0.187601 0.998006
vt 0.002766 0.998006
vt 0.372435 0.816429
vt 0.372435 0.998006
vt 0.185989 0.998039
vt 0.187634 0.816445
vt 0.187634 0.634852
vt 0.006056 0.634852
vt 0.187584 0.816429
vt 0.185989 0.816429
vt 0.002766 0.816429
vt 0.002766 0.816429
vt 0.187634 0.816429
vt 0.187634 0.998006
vt 0.006056 0.998006
vt 0.369212 0.816429
vt 0.369212 0.998006
vt 0.372435 0.816445
vt 0.187634 0.638142
vt 0.006056 0.638142
vt 0.187584 0.634852
vt 0.187634 0.818091
vt 0.187634 0.998039
vt 0.006056 0.998039
vt 0.187634 0.816429
vt 0.187634 0.634852
vt 0.186334 0.173624
vt 0.186334 0.006142
vt 0.186349 0.173624
vt 0.012766 0.006142
vt 0.359933 0.173624
vt 0.186349 0.344132
vt 0.012766 0.344132
vt 0.359933 0.344132
vt 0.186334 0.175137
vt 0.186334 0.344132
vt 0.187601 0.816429
vt 0.185989 0.998006
vt 0.187584 0.998006
vt 0.002733 0.998006
vt 0.187601 0.816445
vt 0.185989 0.816479
vt 0.185989 0.816429
vt 0.185989 0.816445
vt 0.185989 0.818091
vt 0.187634 0.998039
vt 0.187634 0.816445
vt 0.006056 0.816445
vt 0.006056 0.816429
vt 0.369212 0.816479
vt 0.006056 0.816479
vt 0.006056 0.994816
vt 0.006056 0.818091
vt 0.012766 0.173624
vt 0.012766 0.175137
vt 0.002766 0.816445
vt 0.369212 0.816429
vt 0.187634 0.638142
vt 0.187584 0.816445
vt 0.372435 0.816429
vt 0.185989 0.638142
vt 0.187634 0.818091
vt 0.396202 0.678851
vt 0.548975 0.830252
vt 0.548975 0.678851
vt 0.701747 0.681596
vt 0.550346 0.831638
vt 0.550346 0.681596
vt 0.701747 0.678851
vt 0.550346 0.830252
vt 0.550346 0.678851
vt 0.701747 0.981680
vt 0.550346 0.830266
vt 0.550346 0.981680
vt 0.704435 0.678851
vt 0.550319 0.830252
vt 0.550319 0.678851
vt 0.396202 0.830252
vt 0.701747 0.831638
vt 0.701747 0.830252
vt 0.701747 0.830266
vt 0.704435 0.830252
vt 0.550305 0.830266
vt 0.550305 0.678851
vt 0.550319 0.830266
vt 0.704435 0.830266
vt 0.548975 0.830266
vt 0.396202 0.830266
vt 0.548975 0.830294
vt 0.548975 0.681596
vt 0.701747 0.830294
vt 0.548975 0.831638
vt 0.548975 0.981680
vt 0.550305 0.830252
vn 0.0000 1.0000 -0.0000
vn 0.3015 0.9045 -0.3015
vn 0.7071 0.7071 -0.0000
vn 0.3015 0.9045 0.3015
vn 0.5774 0.5774 0.5774
vn 0.0000 0.7071 0.7071
vn -0.2275 0.8042 0.5491
vn 0.0000 0.7071 -0.7071
vn 0.9032 0.4292 0.0000
vn -0.7071 0.7071 -0.0000
vn 0.5774 0.5774 -0.5774
vn 0.0000 0.4292 -0.9032
vn -0.3015 0.9045 -0.3015
vn 0.0000 0.4292 0.9032
vn -0.5491 0.8042 0.2275
vn 0.8650 0.4921 -0.0981
vn -0.6410 0.4221 -0.6410
vn -0.9032 0.4292 0.0000
vn 0.6410 0.4221 0.6410
vn 0.5465 0.6345 0.5465
vn -0.3358 0.3825 0.8608
vn -0.8608 0.3825 0.3358
vn 0.0981 0.4921 -0.8650
vn -0.0467 0.9701 0.2382
vn -0.1662 0.9720 -0.1662
vn 0.2382 0.9701 -0.0467
s 1
f 1/1/1 21/2/2 22/3/3
f 4/4/1 25/5/3 26/6/3
f 5/7/1 28/8/1 29/9/1
f 7/10/1 30/11/1 65/12/1
f 9/13/1 31/14/1 32/15/1
f 11/16/1 46/17/1 33/18/1
f 14/19/1 36/20/1 68/21/1
f 10/22/1 47/23/4 57/24/1
f 8/25/1 63/26/5 70/27/3
f 6/28/1 72/29/6 56/30/1
f 19/31/1 62/32/4 41/33/1
f 1/1/1 42/34/1 21/2/2
f 4/4/1 67/35/1 25/5/3
f 5/7/1 53/36/1 28/8/1
f 7/10/1 49/37/1 30/11/1
f 9/13/1 43/38/1 31/14/1
f 11/16/1 64/39/1 46/17/1
f 14/19/1 44/40/7 36/20/1
f 10/22/1 71/41/1 47/23/4
f 8/25/1 60/42/6 63/26/5
f 6/28/1 55/43/6 72/29/6
f 19/31/1 69/44/1 62/32/4
f 62/32/4 69/44/1 22/3/3
f 69/44/1 1/1/1 22/3/3
f 40/45/8 59/46/1 18/47/1
f 40/45/8 37/48/8 59/46/1
f 37/48/8 2/49/1 59/46/1
f 63/26/5 102/50/9 70/27/3
f 45/51/10 39/52/10 17/53/1
f 37/48/8 104/54/11 21/2/2
f 23/55/8 97/56/12 50/57/8
f 38/58/13 48/59/1 16/60/1
f 38/58/13 52/61/8 48/59/1
f 52/61/8 3/62/1 48/59/1
f 62/32/4 98/63/14 55/43/6
f 47/23/4 71/41/1 26/6/3
f 71/41/1 4/4/1 26/6/3
f 36/20/1 35/64/15 13/65/1
f 36/20/1 44/40/7 35/64/15
f 21/2/2 73/66/16 22/3/3
f 34/67/10 27/68/10 12/69/1
f 39/52/10 91/70/17 38/58/13
f 45/51/10 92/71/18 39/52/10
f 46/72/1 29/73/1 7/10/1
f 46/17/1 64/39/1 29/9/1
f 64/39/1 5/7/1 29/9/1
f 31/74/1 65/12/1 4/75/1
f 31/74/1 43/76/1 65/12/1
f 43/76/1 7/10/1 65/12/1
f 30/11/1 56/77/1 8/78/1
f 30/11/1 49/37/1 56/77/1
f 49/37/1 6/79/1 56/77/1
f 28/80/1 41/81/1 6/79/1
f 28/8/1 53/36/1 41/33/1
f 53/36/1 19/31/1 41/33/1
f 50/57/8 93/82/12 40/45/8
f 25/5/3 67/35/1 70/27/3
f 67/35/1 8/25/1 70/27/3
f 23/55/8 58/83/1 3/62/1
f 23/55/8 50/57/8 58/83/1
f 50/57/8 18/47/1 58/83/1
f 21/2/2 24/84/1 2/49/1
f 21/2/2 42/34/1 24/84/1
f 42/34/1 20/85/1 24/84/1
f 41/33/1 55/43/6 6/28/1
f 41/33/1 62/32/4 55/43/6
f 55/43/6 103/86/14 72/29/6
f 56/30/1 60/42/6 8/25/1
f 56/30/1 72/29/6 60/42/6
f 26/6/3 96/87/19 47/23/4
f 52/61/8 87/88/12 23/55/8
f 60/42/6 101/89/20 63/26/5
f 40/45/8 18/47/1 50/57/8
f 70/27/3 79/90/9 25/5/3
f 34/67/10 88/91/18 27/68/10
f 27/68/10 95/92/18 45/51/10
f 27/68/10 66/93/1 12/69/1
f 27/68/10 45/51/10 66/93/1
f 45/51/10 17/53/1 66/93/1
f 39/52/10 51/94/1 17/53/1
f 39/52/10 38/58/13 51/94/1
f 38/58/13 16/60/1 51/94/1
f 57/24/1 44/40/7 14/19/1
f 57/24/1 47/23/4 44/40/7
f 47/23/4 94/95/21 44/40/7
f 68/21/1 54/96/1 15/97/1
f 68/21/1 36/20/1 54/96/1
f 36/20/1 13/65/1 54/96/1
f 35/64/15 61/98/1 13/65/1
f 35/64/15 34/67/10 61/98/1
f 34/67/10 12/69/1 61/98/1
f 33/18/1 43/38/1 9/13/1
f 33/18/1 46/17/1 43/38/1
f 46/72/1 7/10/1 43/76/1
f 32/15/1 71/41/1 10/22/1
f 32/15/1 31/14/1 71/41/1
f 31/74/1 4/75/1 71/99/1
f 65/12/1 67/100/1 4/75/1
f 65/12/1 30/11/1 67/100/1
f 30/11/1 8/78/1 67/100/1
f 29/73/1 49/37/1 7/10/1
f 29/73/1 28/80/1 49/37/1
f 28/80/1 6/79/1 49/37/1
f 72/29/6 99/101/14 60/42/6
f 38/58/13 84/102/12 52/61/8
f 44/40/7 90/103/22 35/64/15
f 22/3/3 100/104/19 62/32/4
f 40/45/8 83/105/23 37/48/8
f 23/55/8 3/62/1 52/61/8
f 25/5/3 81/106/9 26/6/3
f 35/64/15 89/107/18 34/67/10
f 21/2/2 2/49/1 37/48/8
f 76/108/1 87/109/12 77/110/1
f 82/111/24 89/112/18 90/113/22
f 78/114/25 91/115/17 92/116/18
f 80/117/1 95/118/18 88/119/18
f 74/120/26 93/121/12 75/122/1
f 76/108/1 97/123/12 87/109/12
f 82/111/24 86/124/1 89/112/18
f 78/114/25 84/125/12 91/115/17
f 80/117/1 85/126/1 95/118/18
f 74/120/26 83/127/23 93/121/12
f 100/128/19 73/129/16 74/120/26
f 103/130/14 75/122/1 76/108/1
f 103/130/14 98/131/14 75/122/1
f 98/131/14 74/120/26 75/122/1
f 101/132/20 77/110/1 78/114/25
f 101/132/20 99/133/14 77/110/1
f 99/133/14 76/108/1 77/110/1
f 95/118/18 85/126/1 92/116/18
f 85/126/1 78/114/25 92/116/18
f 96/134/19 81/135/9 82/111/24
f 94/136/21 82/111/24 90/113/22
f 89/112/18 86/124/1 88/119/18
f 86/124/1 80/117/1 88/119/18
f 79/137/9 102/138/9 80/117/1
f 100/128/19 74/120/26 98/131/14
f 103/130/14 76/108/1 99/133/14
f 75/122/1 97/123/12 76/108/1
f 75/122/1 93/121/12 97/123/12
f 102/138/9 85/126/1 80/117/1
f 102/138/9 101/132/20 85/126/1
f 101/132/20 78/114/25 85/126/1
f 96/134/19 82/111/24 94/136/21
f 81/135/9 86/124/1 82/111/24
f 81/135/9 79/137/9 86/124/1
f 79/137/9 80/117/1 86/124/1
f 77/110/1 84/125/12 78/114/25
f 77/110/1 87/109/12 84/125/12
f 73/129/16 83/127/23 74/120/26
f 73/129/16 104/139/11 83/127/23
f 63/26/5 101/89/20 102/50/9
f 37/48/8 83/105/23 104/54/11
f 23/55/8 87/88/12 97/56/12
f 62/32/4 100/104/19 98/63/14
f 21/2/2 104/54/11 73/66/16
f 39/52/10 92/71/18 91/70/17
f 45/51/10 95/92/18 92/71/18
f 50/57/8 97/56/12 93/82/12
f 55/43/6 98/63/14 103/86/14
f 26/6/3 81/106/9 96/87/19
f 52/61/8 84/102/12 87/88/12
f 60/42/6 99/101/14 101/89/20
f 70/27/3 102/50/9 79/90/9
f 34/67/10 89/107/18 88/91/18
f 27/68/10 88/91/18 95/92/18
f 47/23/4 96/87/19 94/95/21
f 72/29/6 103/86/14 99/101/14
f 38/58/13 91/70/17 84/102/12
f 44/40/7 94/95/21 90/103/22
f 22/3/3 73/66/16 100/104/19
f 40/45/8 93/82/12 83/105/23
f 25/5/3 79/90/9 81/106/9
f 35/64/15 90/103/22 89/107/18
